Coordinates
version=1
nRows=16
nColumns=22
inDegrees=yes

Units are S.I. units (second, meters, Newtons, ...)
If the header above contains a line with 'inDegrees', this indicates whether rotational values are in degrees (yes) or radians (no).

endheader
time	pelvis_tilt	pelvis_list	pelvis_rotation	pelvis_tx	pelvis_ty	pelvis_tz	hip_flexion_r	hip_adduction_r	hip_rotation_r	knee_angle_r	ankle_angle_r	subtalar_angle_r	hip_flexion_l	hip_adduction_l	hip_rotation_l	knee_angle_l	ankle_angle_l	subtalar_angle_l	lumbar_extension	lumbar_bending	lumbar_rotation
      1.93000000	    -23.14480077	      5.56320953	    -17.58678957	     -0.73456169	      0.86444628	     -0.21911028	     37.96716818	      1.80617692	     -4.25493419	    -53.24028629	     40.72942730	     -5.07904837	     52.09620528	     -0.84161808	     -0.25458986	    -86.27642664	     19.55962874	      2.07615017	     -7.64985637	      4.48805300	      9.11992117
      1.94000000	    -23.11921809	      5.67510592	    -17.78226457	     -0.71981926	      0.86712704	     -0.21294163	     36.07597822	      1.79888179	     -4.22716249	    -51.62467221	     40.63404709	     -4.79421524	     54.75938446	     -1.35320466	     -1.34387212	    -85.83768137	     20.41198116	      1.82574275	     -7.71101932	      4.15108844	     10.25940073
      1.95000000	    -23.03523837	      5.80750911	    -17.92353189	     -0.70442236	      0.87028624	     -0.20680064	     34.04389362	      1.73468468	     -4.13934342	    -49.88953810	     40.36383008	     -4.24335770	     57.13790563	     -1.77954855	     -2.39611973	    -84.78461799	     21.10661093	      1.63163068	     -7.75774267	      3.77772319	     11.29363922
      1.96000000	    -22.89955887	      5.93836342	    -18.01732956	     -0.68839318	      0.87390590	     -0.20058079	     31.88588184	      1.66587154	     -3.95369416	    -48.05532576	     39.81042589	     -3.73789413	     59.19870729	     -2.15368193	     -3.40832493	    -83.15314339	     21.61010882	      1.80499078	     -7.78880206	      3.37671932	     12.23039122
      1.97000000	    -22.71616481	      6.06673877	    -18.05013796	     -0.67173186	      0.87793295	     -0.19431009	     29.63892148	      1.58282432	     -3.67764466	    -46.18292416	     38.95614602	     -3.09676305	     60.91099275	     -2.45741797	     -4.38413888	    -80.97444608	     21.92853914	      2.19864598	     -7.79992844	      2.95601841	     13.03050554
      1.98000000	    -22.48910326	      6.18592430	    -18.03601928	     -0.65446396	      0.88230839	     -0.18797526	     27.34533495	      1.49695790	     -3.30174993	    -44.33992433	     37.77830868	     -2.31806531	     62.24986214	     -2.70107434	     -5.33604588	    -78.29616891	     22.03095565	      2.76292330	     -7.79441490	      2.52529333	     13.70309622
      1.99000000	    -22.22369923	      6.29394557	    -18.02371440	     -0.63663018	      0.88694585	     -0.18153817	     25.05778527	      1.43360281	     -2.76621109	    -42.60340639	     36.26319634	     -1.48857829	     63.19634263	     -2.92649399	     -6.30867133	    -75.18156651	     21.89337713	      3.36074477	     -7.77318309	      2.09639821	     14.27965365
      2.00000000	    -21.93435964	      6.37072048	    -17.93220188	     -0.61819047	      0.89174391	     -0.17522091	     22.83520976	      1.33286255	     -2.25619891	    -41.07447816	     34.41799506	     -0.22064271	     63.75835893	     -3.02063738	     -7.20152996	    -71.69507978	     21.48844663	      4.30872239	     -7.72844963	      1.71760128	     14.70362938
      2.01000000	    -21.60782879	      6.42209185	    -17.89061038	     -0.59924569	      0.89663119	     -0.16880805	     20.72405843	      1.26457388	     -1.59622071	    -39.83042327	     32.23263321	      1.08768911	     63.90574218	     -3.09251208	     -8.09444189	    -67.92921963	     20.81855806	      5.31215716	     -7.68167844	      1.36430227	     15.06936575
      2.02000000	    -21.26758231	      6.42998309	    -17.88126898	     -0.57982469	      0.90145769	     -0.16241616	     18.79803571	      1.22252637	     -0.85571176	    -38.96523629	     29.75088095	      2.56736832	     63.68236878	     -3.10329260	     -8.91618310	    -64.00107311	     19.88159202	      6.57810522	     -7.61872884	      1.08494663	     15.37087541
      2.03000000	    -20.91563060	      6.38571434	    -17.91580096	     -0.55996970	      0.90610956	     -0.15605536	     17.11131375	      1.21610536	     -0.04927071	    -38.56240027	     26.98664171	      4.12683934	     63.11197672	     -3.04353226	     -9.61777803	    -60.03791145	     18.74506928	      8.11885618	     -7.54213800	      0.89333126	     15.61454687
      2.04000000	    -20.55594935	      6.28449566	    -17.99186006	     -0.53975872	      0.91045550	     -0.14973593	     15.71948296	      1.25230137	      0.79383575	    -38.69747253	     23.97268011	      5.64972556	     62.23804026	     -2.90480051	    -10.14624645	    -56.18472783	     17.52063336	      9.86347020	     -7.45635762	      0.79355767	     15.80182044
      2.05000000	    -20.20535979	      6.12804000	    -18.09898032	     -0.51926719	      0.91434326	     -0.14346931	     14.67627435	      1.34302829	      1.65219830	    -39.41395015	     20.78531266	      7.05452064	     61.13013026	     -2.69353140	    -10.47190395	    -52.60160039	     16.31212766	     11.69921331	     -7.34314161	      0.79014531	     15.91756739
      2.06000000	    -19.85403815	      5.93706292	    -18.22712771	     -0.49857018	      0.91767591	     -0.13727428	     14.00683018	      1.47052081	      2.49580739	    -40.73024617	     17.50400228	      8.17772082	     59.83095951	     -2.40808966	    -10.60099338	    -49.42835582	     15.25543448	     13.30565449	     -7.21207843	      0.85854751	     15.94694456
      2.07000000	    -19.54633079	      5.72044167	    -18.33046977	     -0.47781400	      0.92026023	     -0.13117342	     13.77701126	      1.63726926	      3.23510106	    -42.63989664	     14.26525673	      9.00839062	     58.45530366	     -2.05071977	    -10.51100171	    -46.79938264	     14.41067613	     14.50701187	     -7.01983710	      0.99176899	     15.87118192
      2.08000000	    -19.23630734	      5.52192490	    -18.42287598	     -0.45707659	      0.92207641	     -0.12514481	     13.95329143	      1.79114379	      3.86518506	    -45.08763388	     11.22964018	      9.39964580	     57.00530247	     -1.63569278	    -10.30970382	    -44.78735653	     13.86480196	     14.83045711	     -6.81414372	      1.12299074	     15.67089641
